<svg width="64" height="64" viewBox="0 0 64 64" fill="none" xmlns="http://www.w3.org/2000/svg">
<path d="M28.7449 40.7198C27.8545 41.7219 26.7282 42.6487 25.7924 43.6182C22.7064 46.8141 18.5975 48.3391 14.0785 47.9367C10.2522 47.5768 6.7332 45.7138 4.3133 42.7668C1.8546 39.8025 0.688673 35.9965 1.07144 32.1846C1.49523 28.3819 3.42091 24.8973 6.43091 22.4863C11.126 18.7168 18.1559 18.3039 23.1968 21.5639C24.9771 22.7153 28.4847 26.1394 30.202 27.7272L39.2645 36.1259C41.4633 38.168 43.6219 40.6591 46.7572 40.9227C48.8271 41.0808 50.8729 40.4004 52.4236 39.0383C53.9173 37.7403 54.8007 35.8909 54.8647 33.9282C54.9253 31.9631 54.187 30.0556 52.8142 28.6307C51.4574 27.2151 49.5819 26.3959 47.6079 26.3561C43.8344 26.2795 41.8456 28.8072 39.3537 31.225C37.8197 29.8642 35.7852 27.9589 34.3808 26.5107C35.6849 25.3318 36.8896 24.0478 38.1842 22.8462C40.8934 20.3315 44.6278 19.2292 48.3159 19.399C52.1369 19.5838 55.7203 21.2836 58.2528 24.1131C60.8787 26.9595 62.2205 30.7364 61.9704 34.5778C61.7573 38.1062 60.1609 41.6891 57.4574 44.0383C56.1874 45.479 53.4881 46.8817 51.6369 47.3832C48.6309 48.4077 44.2775 48.0909 41.4539 46.7158C38.3556 45.2067 35.3675 41.9898 32.8312 39.632L23.6079 31.0103C21.542 29.0887 19.8223 27.0462 16.976 26.4984C15.0516 26.1117 13.051 26.5153 11.435 27.6162C9.75569 28.7592 8.61964 30.5272 8.28836 32.5137C7.95887 34.4318 8.43171 36.3993 9.5983 37.9674C10.7642 39.5412 12.5274 40.5806 14.4843 40.8481C19.3158 41.5312 20.7771 38.2958 23.71 36.0718L28.7449 40.7198Z" fill="url(#paint0_linear_163_35)"/>
<path d="M31.1844 18.7102C32.6005 18.3389 34.0529 19.174 34.4236 20.5729C34.7946 21.9715 33.943 23.4016 32.524 23.7622C31.1127 24.121 29.673 23.2862 29.304 21.8947C28.9351 20.5033 29.7758 19.0796 31.1844 18.7102Z" fill="#C33E78"/>
<path d="M37.1263 16.0164C37.9405 15.8968 38.7011 16.4436 38.8355 17.2448C38.9699 18.0458 38.4282 18.8054 37.6185 18.951C37.0831 19.0474 36.5364 18.8512 36.1887 18.438C35.8409 18.0247 35.7459 17.4584 35.9401 16.9566C36.1345 16.4549 36.5879 16.0954 37.1263 16.0164Z" fill="#C33E78"/>
<defs>
<linearGradient id="paint0_linear_163_35" x1="55.4582" y1="47.7694" x2="5.05132" y2="20.4341" gradientUnits="userSpaceOnUse">
<stop stop-color="#C41C1F"/>
<stop offset="1" stop-color="#C06FF9"/>
</linearGradient>
</defs>
</svg>
